<?xml version="1.0"?>
<svg version="1.1" xmlns="http://www.w3.org/2000/svg" width="400px" height="200px" style=""><path fill="#" d="M46.931640625,165.09765625q0.2578125-13.470703125,1.1279296875-26.876953125t1.5146484375-26.876953125q0.12890625-5.15625,0.12890625-9.3779296875t0.4189453125-7.3154296875t1.546875-4.7373046875t3.7705078125-1.6435546875q2.255859375,0,3.416015625,0.64453125t1.7724609375,1.6435546875t0.7412109375,2.255859375t0.12890625,2.5458984375q0,1.869140625,0.12890625,3.7060546875t0.12890625,3.7060546875q0,13.599609375-0.7412109375,27.134765625t-0.7412109375,27.263671875q0,1.998046875,0.064453125,4.0283203125t0.064453125,4.1572265625q0,0.7734375-0.708984375,1.2890625t-1.7724609375,0.8701171875t-2.255859375,0.4833984375t-1.9658203125,0.12890625q-0.90234375,0-2.0302734375-0.12890625t-2.19140625-0.5478515625t-1.8046875-0.9990234375t-0.7412109375-1.353515625z M50.541015625,77.69921875q0-0.64453125,0.193359375-1.4501953125t0.451171875-1.4501953125q0.12890625-0.7734375,0.38671875-2.642578125t0.9345703125-3.6416015625t1.869140625-3.158203125t3.3837890625-1.3857421875l1.224609375,0q1.03125,0.2578125,2.0947265625,0.64453125t1.0634765625,1.869140625q0,0.64453125-0.064453125,1.224609375t-0.193359375,1.2890625q-0.515625,3.802734375-0.9990234375,5.994140625t-1.1279296875,3.3193359375t-1.6435546875,1.4501953125t-2.5458984375,0.451171875q-0.515625,0-1.3857421875-0.064453125t-1.67578125-0.322265625t-1.3857421875-0.8056640625t-0.580078125-1.3212890625z M75.49533203125,125.8134765625q-0.1611328125-2.1591796875,0.2578125-3.9638671875t1.67578125-2.9326171875t4.0283203125-1.1279296875q0.64453125,0,1.5791015625,0.1611328125t1.8369140625,0.4189453125t1.5146484375,0.7734375t0.6123046875,1.41796875l0,7.283203125q2.513671875-2.900390625,5.478515625-4.1572265625t6.767578125-1.2568359375q2.900390625,0,5.736328125,1.3212890625t5.349609375,3.5126953125t4.3505859375,4.833984375t2.6748046875,5.28515625q0.515625-2.384765625,1.16015625-5.8330078125t1.9013671875-6.6064453125t3.3193359375-5.4140625t5.478515625-2.255859375q3.673828125,0,6.1875,2.642578125t4.0927734375,6.8642578125t2.384765625,9.4423828125t1.1923828125,10.3125t0.38671875,9.5068359375l0,6.9287109375q0,0.7734375-0.580078125,1.2568359375t-1.4501953125,0.7412109375t-1.8046875,0.322265625t-1.4501953125,0.064453125q-1.998046875,0-3.6416015625-0.6123046875t-1.6435546875-3.1259765625l0-5.80078125t-0.12890625-7.5087890625t-0.451171875-8.056640625t-0.837890625-7.3154296875t-1.3212890625-5.28515625t-1.9658203125-2.0625q-1.611328125,0-2.3203125,1.8046875t-1.1923828125,4.576171875t-0.7412109375,5.865234375t-0.708984375,5.865234375t-1.4501953125,4.5439453125t-2.7392578125,1.7724609375q-1.869140625,0-3.287109375-1.7724609375t-2.8037109375-4.4150390625t-2.771484375-5.671875t-3.0615234375-5.671875q-1.67578125-2.70703125-3.609375-4.3828125q-1.740234375-1.611328125-3.931640625-1.546875l-0.322265625,0q-2.900390625,0.12890625-4.5439453125,2.0947265625t-2.513671875,4.8017578125t-1.0634765625,6.0908203125t-0.193359375,5.7041015625q0,2.3203125,0.38671875,5.4140625q0.2578125,2.0625,0.2578125,3.931640625q0,0.966796875-0.064453125,1.869140625q-0.193359375,2.70703125-1.4501953125,4.5439453125t-4.6728515625,1.8369140625q-1.2890625,0-3.22265625-0.2578125t-2.578125-1.740234375q-1.482421875-2.642578125-2.255859375-6.6708984375t-1.16015625-8.314453125t-0.451171875-8.5078125t-0.064453125-7.2509765625q0-2.126953125-0.1611328125-4.2861328125z M156.9105859375,132.87109375l0-10.18359375q0-10.5703125,0.3544921875-20.9794921875t0.6123046875-20.9794921875q0-1.998046875-0.12890625-4.447265625q-0.064453125-0.708984375-0.064453125-1.353515625q0-1.611328125,0.2578125-3.158203125q0.322265625-2.0625,1.5791015625-3.544921875t4.1572265625-1.482421875q2.384765625,0,3.6416015625,0.515625t1.7724609375,1.5146484375t0.580078125,2.513671875t0.064453125,3.5126953125q0,10.69921875-0.2578125,21.462890625q-0.193359375,7.154296875-0.193359375,14.30859375q0,3.609375,0.064453125,7.21875q0.12890625,10.69921875,0.9990234375,21.3984375t2.9326171875,21.140625q6.4453125-0.2578125,12.890625-0.64453125t12.890625-0.38671875q0.64453125,0,1.8369140625,0.12890625t2.384765625,0.451171875t2.0302734375,0.837890625t0.837890625,1.482421875q0,0.64453125-0.580078125,1.095703125t-1.095703125,0.708984375l-0.12890625,0q-1.03125,0.515625-4.0927734375,0.9990234375t-6.9609375,0.7412109375t-8.185546875,0.451171875t-8.056640625,0.322265625t-6.5419921875,0.193359375t-3.416015625,0.064453125l-0.580078125,0q-1.546875,0-3.48046875-0.515625q-2.3203125-0.64453125-2.900390625-2.513671875q-1.16015625-4.76953125-1.8369140625-9.8935546875t-1.03125-10.4091796875t-0.3544921875-10.5703125z M214.12369140625,143.18359375q0-3.673828125,0.9345703125-7.5732421875t2.96484375-7.025390625t5.1240234375-5.091796875t7.4765625-1.9658203125q3.287109375,0,6.9287109375,1.1279296875t6.6708984375,3.22265625t4.9306640625,5.1240234375t1.9013671875,6.767578125q0,4.51171875-1.6435546875,8.572265625t-4.6083984375,7.2509765625t-6.9287109375,5.02734375t-8.6044921875,1.8369140625q-3.802734375,0-6.638671875-1.3857421875t-4.7373046875-3.7060546875t-2.8359375-5.478515625t-0.9345703125-6.703125z M223.59830078125,143.0546875q0,1.16015625,0.3544921875,3.416015625t1.0634765625,4.4150390625t1.8369140625,3.73828125t2.7392578125,1.4501953125q3.416015625-0.38671875,5.6396484375-2.2236328125t3.609375-4.4794921875t1.93359375-5.736328125t0.5478515625-5.865234375q0-3.544921875-1.3857421875-5.9296875t-4.5439453125-3.8671875q0,0.12890625,0.12890625,0.12890625t0.12890625-0.12890625l-1.611328125-0.38671875q-0.64453125-0.2578125-1.5791015625-0.580078125t-1.8369140625-1.41796875q-2.513671875,0.90234375-3.8994140625,2.3203125t-2.0947265625,3.4482421875t-0.8701171875,4.8662109375t-0.1611328125,6.83203125z M262.957890625,139.703125q0-3.544921875,0.6767578125-7.5732421875t2.3203125-7.3798828125t4.5439453125-5.54296875t7.412109375-2.19140625q3.029296875,0,5.865234375,0.9990234375t5.349609375,2.7392578125q0.7734375-1.2890625,2.44921875-1.5791015625t2.96484375-0.2900390625q0.515625,0,1.4501953125,0.064453125t1.8369140625,0.38671875t1.5791015625,0.7734375t0.8056640625,1.2890625q0.515625,4.51171875,0.708984375,8.9912109375t0.580078125,8.9267578125q0.64453125,8.314453125,1.998046875,16.435546875t1.353515625,16.435546875q0,3.931640625-0.3544921875,8.5078125t-1.869140625,8.4755859375t-4.4150390625,6.4775390625t-8.056640625,2.578125q-4.640625,0-7.1220703125-1.6435546875t-4.4794921875-5.5107421875q0.12890625-1.2890625,1.6435546875-1.7080078125t2.6103515625-0.4189453125q1.03125,0,2.0947265625,0.193359375t1.7080078125,0.64453125l1.611328125,1.03125q2.384765625-4.8984375,2.900390625-10.69921875t0.515625-11.21484375q0-4.51171875-0.451171875-8.9267578125t-0.90234375-8.8623046875q-4.51171875,8.185546875-13.728515625,8.185546875q-4.25390625,0-6.9287109375-1.8046875t-4.125-4.576171875t-1.998046875-6.251953125t-0.5478515625-6.9609375z M270.885625,140.283203125q0,1.611328125,0.12890625,4.1572265625t0.6767578125,4.9951171875t1.5791015625,4.2216796875t2.900390625,1.7724609375q3.544921875,0,5.607421875-2.771484375t3.2548828125-6.6064453125t1.9013671875-7.927734375t1.8046875-6.7353515625q-0.12890625-0.90234375-0.12890625-1.7724609375l0-1.7724609375q-1.482421875-2.771484375-4.318359375-4.8017578125t-5.865234375-2.7392578125q-0.38671875-0.064453125-0.708984375-0.064453125q-1.8046875,0-2.96484375,2.126953125q-1.482421875,2.578125-2.3203125,6.1552734375t-1.1923828125,7.0576171875t-0.3544921875,4.705078125z M316.75498046875,143.18359375q0-3.673828125,0.9345703125-7.5732421875t2.96484375-7.025390625t5.1240234375-5.091796875t7.4765625-1.9658203125q3.287109375,0,6.9287109375,1.1279296875t6.6708984375,3.22265625t4.9306640625,5.1240234375t1.9013671875,6.767578125q0,4.51171875-1.6435546875,8.572265625t-4.6083984375,7.2509765625t-6.9287109375,5.02734375t-8.6044921875,1.8369140625q-3.802734375,0-6.638671875-1.3857421875t-4.7373046875-3.7060546875t-2.8359375-5.478515625t-0.9345703125-6.703125z M326.22958984375,143.0546875q0,1.16015625,0.3544921875,3.416015625t1.0634765625,4.4150390625t1.8369140625,3.73828125t2.7392578125,1.4501953125q3.416015625-0.38671875,5.6396484375-2.2236328125t3.609375-4.4794921875t1.93359375-5.736328125t0.5478515625-5.865234375q0-3.544921875-1.3857421875-5.9296875t-4.5439453125-3.8671875q0,0.12890625,0.12890625,0.12890625t0.12890625-0.12890625l-1.611328125-0.38671875q-0.64453125-0.2578125-1.5791015625-0.580078125t-1.8369140625-1.41796875q-2.513671875,0.90234375-3.8994140625,2.3203125t-2.0947265625,3.4482421875t-0.8701171875,4.8662109375t-0.1611328125,6.83203125z"/><path fill="#" d=""/></svg>
